<svg width="22" height="21" viewBox="0 0 22 21" fill="none" xmlns="http://www.w3.org/2000/svg">
<path d="M7.26449 10.1935H3.19556C3.26497 6.14188 4.06314 5.47385 6.55308 3.99897C6.83938 3.82545 6.93481 3.46107 6.7613 3.1661C6.59646 2.8798 6.2234 2.78436 5.9371 2.95788C3.0047 4.69303 1.98096 5.75147 1.98096 10.7921V15.4683C1.98096 16.9519 3.18689 18.1491 4.66176 18.1491H7.26449C8.79142 18.1491 9.9453 16.9952 9.9453 15.4683V12.8656C9.9453 11.3473 8.79142 10.1935 7.26449 10.1935Z" fill="#292D32"/>
<path d="M16.6517 10.1935H12.5828C12.6522 6.14188 13.4504 5.47385 15.9403 3.99897C16.2266 3.82545 16.322 3.46107 16.1485 3.1661C15.975 2.8798 15.6106 2.78436 15.3156 2.95788C12.3832 4.69303 11.3595 5.75147 11.3595 10.8008V15.477C11.3595 16.9605 12.5654 18.1578 14.0403 18.1578H16.643C18.17 18.1578 19.3238 17.0039 19.3238 15.477V12.8743C19.3325 11.3473 18.1786 10.1935 16.6517 10.1935Z" fill="#292D32"/>
</svg>
