<svg width="241" height="388" viewBox="0 0 241 388" fill="none" xmlns="http://www.w3.org/2000/svg">
<path fill-rule="evenodd" clip-rule="evenodd" d="M190.358 288.371C193.374 284.444 192.589 278.55 196.502 274.846C196.865 274.507 197.018 273.494 196.781 273.048C195.447 270.501 197.125 268.925 198.338 267.047C199.137 265.806 200.425 263.808 198.101 263.008C195.661 262.172 197.176 261.317 197.924 260.917C203.371 258.059 203.641 251.547 207.438 247.406C208.949 245.756 210.348 242.159 210.199 239.784C209.994 236.563 211.816 235.587 213.406 233.909C213.829 233.463 213.824 232.454 213.759 231.729C213.601 230.005 212.764 228.504 211.928 227.021L211.942 226.687C212.016 225.446 211.714 223.326 212.23 223.103C216.046 221.458 214.6 217.391 216.287 214.798C216.933 213.803 216.943 211.186 214.675 211.619C212.671 212.004 209.934 211.99 208.893 214.384C206.044 220.947 200.68 226.059 198.268 232.822C197.227 235.736 194.55 236.363 192.435 237.757C191.706 238.236 191.264 237.427 191.018 236.391C190.009 232.115 191.915 229.28 195.14 226.919C196.558 225.883 197.887 224.767 198.812 223.196C202.725 216.541 204.11 209.188 204.886 201.659C204.584 201.254 204.282 200.845 203.98 200.441C205.797 198.521 207.81 196.672 206.355 193.618C206.039 192.953 206.397 192.786 206.964 192.679C209.241 192.242 209.246 190.476 209.241 188.719C209.237 187.548 210.427 182.575 211.017 181.264C211.119 181.041 211.333 180.697 211.254 180.59C209.158 177.853 212.476 176.44 212.774 174.297C213.29 173.475 213.159 172.601 212.983 171.723L213.122 171.69C213.294 171.672 213.466 171.653 213.638 171.634C213.461 171.588 213.28 171.541 213.104 171.495C212.992 171.3 212.946 171.091 212.96 170.867C213.085 169.729 213.215 168.595 213.341 167.456C214.145 165.165 216.404 163.055 213.922 160.396C213.155 159.574 214.07 158.844 214.874 158.393C216.055 158.3 216.589 159.206 217.296 159.899C217.877 160.466 216.873 161.846 218.369 161.893C218.969 161.911 219.285 161.614 219.332 161.033C219.42 159.955 219.141 159.341 217.923 158.886C217.175 158.607 217.012 157.287 216.032 156.552C215.209 155.939 214.846 153.215 216.492 152.634C218.802 151.821 218.184 149.781 219.61 148.414C217.984 147.945 216.204 150.826 215.595 147.754C214.842 146.885 214.08 145.774 213.364 147.713C213.364 147.708 213.359 147.708 213.359 147.703C210.947 144.715 211.426 141.331 213.313 138.691C217.412 132.965 220.54 126.719 224.188 120.774C228.752 113.333 233.674 106.06 238.489 98.7442C239.647 96.9827 240.344 94.9981 240.339 92.8183C237.49 95.7975 235.873 99.5343 233.084 102.416C229.673 101.853 226.921 100.264 225.271 97.1453C224.783 96.2251 224.416 95.3234 223.245 95.3141C223.008 95.3095 222.692 95.7464 222.543 96.0485C221.888 97.3452 222.734 98.1632 223.58 98.9115C224.272 99.5203 225.638 99.6319 225.234 101.012C224.834 102.369 223.603 102.346 222.478 102.407C222.441 102.188 222.399 101.965 222.357 101.747C222.246 101.802 222.139 101.863 222.027 101.919C222.176 102.081 222.325 102.244 222.473 102.407C225.462 105.042 223.212 107.189 221.99 109.378C220.577 109.629 221.418 107.064 220.01 107.919C219.048 108.504 219.564 109.606 220.038 110.577C220.944 112.432 223.491 112.594 224.086 114.695C221.521 118.274 219.782 122.661 214.939 124.005C212.634 123.716 210.468 123.117 208.832 121.313C209.827 120.333 210.008 119.301 209.353 117.986C208.344 115.964 206.941 118.074 205.825 117.53C205.811 117.275 205.797 117.014 205.783 116.759C205.286 115.188 206.513 114.374 207.475 113.924C209.757 112.845 209.72 111.451 208.553 109.643C210.348 109.123 211.468 108.128 210.357 106.213C209.125 104.098 210.138 102.592 211.403 101.068C212.964 100.771 214.981 100.65 214.331 98.3723C214.033 97.322 212.639 95.9276 211.677 95.8719C209.822 95.7603 210.171 98.0052 209.455 99.1671C209.218 99.5482 209.618 100.324 209.729 100.919C207.661 102.151 205.598 103.378 203.529 104.61C204.529 102.207 207.512 100.478 206.034 97.2337C207.452 97.1593 208.544 96.239 208.493 95.0399C208.414 93.1715 206.722 96.0438 206.169 94.5194C206.076 94.2638 205.579 94.1569 205.268 93.9802C205.254 92.9392 205.983 92.3907 206.699 91.833C209.873 91.3729 208.27 88.6586 208.739 86.4974C209.799 87.9893 210.32 90.0762 212.044 87.901C213.68 88.3983 213.248 89.9135 213.582 91.0429C213.155 91.9724 211.389 92.3117 212.132 93.6642C212.555 94.4311 213.564 95.3234 214.345 95.3606C216.924 95.4815 215.66 92.981 216.45 91.8284C219.197 89.8763 216.399 87.7941 216.599 85.7817C215.795 86.0234 214.777 87.3433 214.266 85.9676C213.327 83.4578 211.802 84.9126 210.436 85.0473C209.701 84.8475 208.967 84.643 208.233 84.4431C210.71 79.4608 212.806 74.2646 216.036 69.6913C217.635 67.4278 218.058 64.9599 217.909 62.306C219.043 61.1952 218.095 60.0658 217.937 58.9457C220.647 59.8985 220.526 57.7838 221.177 56.1804C222.013 54.1121 220.414 54.9905 219.727 54.7349C219.318 53.1268 217.891 52.4296 216.72 51.6116C215.562 50.7983 215.358 49.9803 215.953 48.8137C217.407 46.2947 217.017 43.4828 217.184 40.7685C217.194 40.6337 216.715 40.4664 216.38 40.3084C216.39 40.6663 216.399 41.0195 216.403 41.3774C215.994 41.1543 215.632 40.9358 215.702 40.7034C215.632 40.9358 215.999 41.1589 216.403 41.3774C216.394 41.0195 216.385 40.6663 216.38 40.3084C216.38 40.2944 216.38 40.2805 216.38 40.2712L216.259 40.2526C218.997 32.4305 223.835 25.5798 227.507 17.7809C225.959 17.8413 225.648 18.3758 225.276 18.8917C222.701 22.4658 219.717 25.8075 218.253 30.0462C217.514 32.1842 215.195 32.5699 214.205 34.8984C212.732 38.3749 210.687 42.4556 205.886 43.0877C205.193 40.4618 205.862 38.0868 207.591 36.1394C208.851 34.7265 207.782 33.8481 207.224 32.8395C206.783 32.0447 205.974 32.0308 205.268 32.477C204.268 33.1044 203.316 33.941 204.115 35.2191C205.574 37.5616 203.729 38.8629 202.665 40.4385C200.271 40.5129 198.626 41.3216 199.04 44.1428C197.311 42.9111 195.08 39.7646 195.433 45.3558C195.517 46.6758 193.709 47.3218 192.207 47.0848C190.994 46.8942 189.809 46.5549 188.61 46.2807C188.935 45.314 190.102 43.9894 188.034 43.7663C185.928 43.5386 184.743 45.221 184.265 46.8477C183.837 48.3025 185.338 47.61 186.072 47.675L186.193 47.9399C186.217 48.9346 186.24 49.9338 186.263 50.9284C183.075 51.7604 185.44 53.8379 185.268 55.3531C184.172 55.6505 183.075 55.948 181.978 56.2408C182.233 55.1439 182.489 54.0424 182.74 52.9455C182.87 52.6667 183.163 52.3274 183.089 52.1229C182.884 51.5698 182.429 51.6209 181.987 51.9137C179.584 53.9216 179.831 57.5096 177.446 59.5267C172.589 59.3454 174.202 62.5524 174.532 65.0854C173.654 66.1358 172.845 67.2605 171.883 68.2226C170.461 69.6401 168.709 71.2761 166.761 69.7006C164.805 68.111 166.822 66.3356 167.379 64.681C167.7 63.7329 168.3 63.4076 169.317 63.3332C170.233 63.2635 171.214 62.2921 170.619 61.5392C168.746 59.1595 169.973 56.8357 170.256 54.4514C170.349 53.6938 170.619 52.0346 168.839 53.3266C167.918 52.7224 168.016 51.7232 167.863 50.8169C169.085 48.6232 170.41 46.4806 171.516 44.2311C175.076 36.9992 180.333 30.7201 183.279 23.1537C184.799 20.8484 186.184 18.4874 186.533 15.6569C184.901 17.4044 183.53 19.2775 182.959 21.6199C181.778 22.2938 179.078 21.9081 179.733 23.8462C180.737 26.8161 178.659 28.1918 177.66 30.181C175.336 34.8008 171.474 38.2262 168.341 42.2093C166.454 44.6075 164.656 46.8896 161.147 46.3318C160.807 45.7416 160.468 45.156 160.124 44.5657C168.262 29.9114 177.623 15.9218 185.022 0.142804C183.205 0.681939 182.931 1.59289 182.508 2.33188C178.441 9.43359 174.337 16.5167 170.363 23.6696C164.293 34.6056 156.82 44.654 150.387 55.3577C150.136 55.776 149.611 56.0595 149.439 56.4917C147.803 60.5957 143.137 61.9668 141.691 66.9166C139.326 75.0036 132.461 80.8969 128.125 88.1334C125.434 92.6231 121.911 96.7596 120.052 101.551C118.509 105.539 117.147 104.368 114.86 102.955C116.701 100.292 118.36 97.6287 120.284 95.1701C124.825 89.3604 127.181 82.3377 131.085 76.1423C134.599 70.565 137.569 64.5184 138.429 57.7559C140.65 55.5297 140.762 52.267 142.356 49.734C140.734 47.5217 144.452 43.2179 139.461 42.2697C139.414 42.2604 139.405 41.2798 139.614 40.8801C140.204 39.7507 139.502 38.9373 139.042 38.0821C137.104 34.4616 135.138 30.8596 133.186 27.2529C126.837 15.5082 120.484 3.76802 114.112 -8C112.694 -7.17735 112.383 -5.88529 111.807 -4.81166C87.9777 39.1929 64.1628 83.2115 40.3525 127.225C14.5345 174.957 -11.279 222.699 -37.0971 270.431C-46.0904 287.065 -55.0419 303.718 -64.1375 320.296C-65.7456 323.229 -65.146 323.908 -62.0042 323.745C-58.4859 323.568 -54.9443 323.74 -51.4167 323.763C-50.2362 324.428 -49.223 324.368 -48.4793 323.104C-46.2624 323.638 -44.0129 323.829 -41.7448 323.684C-40.1367 323.582 -38.431 324.159 -36.9437 323.266C-35.238 322.239 -36.0792 320.296 -35.8608 318.73C-33.4579 319.525 -35.1683 321.616 -34.3642 322.922C-30.1952 318.883 -28.6521 316.318 -27.941 312.493C-27.9085 312.33 -27.5553 312.223 -27.3508 312.093C-27.3554 312.098 -27.4252 312.177 -27.4252 312.177C-27.388 312.158 -27.3601 312.149 -27.3275 312.135C-27.3368 312.121 -27.3415 312.107 -27.3508 312.093C-26.305 311.057 -28.6243 307.125 -24.4831 308.742C-24.3948 308.398 -24.1625 308.022 -24.2368 307.72C-25.2221 303.862 -20.4164 300.488 -24.3437 296.282C-21.2251 296.895 -20.7743 298.684 -20.0864 300.279C-19.8029 300.939 -19.7146 301.961 -18.7479 301.817C-17.8462 301.682 -17.7439 300.785 -17.9856 300.046C-18.5898 298.168 -17.242 297.969 -16.0196 297.625C-16.0196 297.625 -15.7826 297.862 -15.7873 297.862C-15.7082 298.582 -17.005 299.758 -15.4526 299.935C-13.7701 300.13 -13.2543 298.136 -13.4123 297.313C-13.9514 294.436 -12.255 293.725 -9.05736 293.33C-11.7716 292.182 -11.7344 290.648 -11.1349 289.277C-10.4796 287.785 -9.26186 288.143 -8.02092 288.813C-6.65914 289.547 -6.37098 288.339 -5.92945 287.451C-5.37637 286.345 -6.12001 284.988 -5.26947 283.951C-5.3113 283.928 -5.35313 283.895 -5.39496 283.872C-5.35313 283.9 -5.3113 283.928 -5.26947 283.951L-5.26483 283.956C-3.26166 284.676 -3.21054 283.133 -3.04322 281.939C-2.79689 280.2 -2.78295 278.43 -2.52732 276.696C-2.34606 275.446 -1.38398 274.135 -0.39402 275.599C2.4132 279.745 2.98022 275.785 3.28697 274.451C3.98413 271.416 4.05385 268.242 4.37919 265.123C4.67664 265.109 4.97875 265.091 5.2762 265.077C7.93935 264.44 7.50246 260.503 7.87892 260.508C12.7544 260.578 10.5932 254.842 13.7351 253.732C13.6235 248.814 17.8948 246.174 20.1768 242.73C22.6959 238.924 25.3172 235.224 27.2506 231.065C29.8255 225.525 31.5126 219.65 33.5715 213.882C34.4546 214.426 33.8318 215.969 35.0216 215.96C36.0627 215.95 36.2161 214.802 36.5646 214.04C37.0387 213.013 37.3873 211.93 37.8288 210.884C39.8459 206.139 42.0536 202.969 45.0746 200.98C42.2442 208.119 40.9428 215.072 36.9225 221.095C31.0013 229.959 27.0043 239.854 22.338 249.386C21.9708 250.139 21.6129 251.231 21.8871 251.905C22.8074 254.141 21.7524 255.577 20.53 257.278C19.4564 258.774 17.9738 260.843 21.1993 261.953C21.2179 262.33 21.2365 262.706 21.2551 263.083C18.1783 264.756 16.5562 267.507 15.4408 270.705C15.0829 271.737 14.316 272.639 13.6793 273.559C10.4073 278.276 7.8185 283.212 8.53425 289.236C5.08099 288.348 4.22117 290.016 4.76495 293.065C5.09029 294.325 5.41563 295.58 5.88969 297.406C7.98117 294.311 10.0912 292.159 11.0766 289.198C11.5739 287.697 12.8008 286.405 14.5577 287.428C16.6166 288.627 15.6127 290.184 14.5577 291.555C14.1766 292.047 13.7211 292.498 13.2424 292.898C10.9232 294.813 9.8728 297.532 8.6458 300.13C6.40095 304.88 7.55358 310.601 4.72777 315.086C3.23585 317.457 4.74171 320.138 3.05459 322.378C2.35743 323.308 2.79897 323.638 9.78913 323.712C11.4251 323.731 13.0658 323.703 14.7018 323.717C15.3246 323.722 16.4168 323.624 16.5051 323.866C17.7646 327.338 19.3541 325.009 20.6601 324.066C23.1792 322.253 23.5046 325.897 25.3915 325.86C26.2235 325.841 26.9206 327.254 26.414 327.951C24.3504 330.809 25.0197 334.616 22.9375 337.423C23.1327 337.59 23.3233 337.758 23.5138 337.925C26.1166 337.005 26.5906 338.673 26.6882 340.625C26.9346 345.505 25.5077 350.307 23.0816 354.136C19.317 360.081 15.9613 366.299 11.7226 371.984C7.89287 377.115 4.77425 382.78 1.36282 388.218C0.549469 389.515 0.340324 390.946 1.70675 391.941C3.01741 392.889 4.38383 392.564 5.32268 391.211C10.9882 383.087 15.794 374.382 20.609 365.793C25.6239 356.837 35.5654 345.859 45.9251 341.857C43.513 346.551 41.3425 350.637 36.9922 353.077C36.718 351.487 35.7467 351.32 34.6916 352.208C33.5855 353.142 32.8744 354.322 34.7149 355.354C34.5289 356.795 33.0928 356.776 32.2469 357.432C28.6496 360.206 28.6728 361.694 32.4375 364.561C32.0564 366.351 29.1794 365.268 29.1143 367.568C28.9842 372.077 26.2002 375.646 23.4767 378.551C21.2225 380.949 21.2039 383.714 19.4657 386.15C21.6548 386.461 21.8314 384.881 22.4821 383.961C29.0353 374.675 34.9426 364.905 42.9367 356.693C43.6757 356.442 44.4146 356.195 45.1583 355.944C44.4193 356.195 43.6757 356.442 42.932 356.697C42.6578 358.226 41.8538 359.769 43.0714 361.247C43.1086 362.237 43.0436 363.404 44.6098 362.744C45.7439 362.265 46.8872 361.986 48.1096 362.056C48.6766 363.822 46.3667 364.803 46.864 366.555C48.3234 367.038 49.6805 367.406 49.3645 364.947C49.2111 363.748 49.2157 362.525 49.1507 361.312C49.9082 361.424 50.373 361.061 50.6286 360.36C50.8796 360.401 51.1306 360.443 51.3862 360.485C52.8874 362.446 54.7744 362.758 56.8426 361.391C57.2284 361.666 57.6142 361.94 57.9999 362.214C59.2548 362.893 60.4725 363.185 61.6856 361.944C60.4586 360.866 59.4175 361.549 58.3764 361.87C58.1719 360.899 57.986 359.909 56.601 360.62C56.099 360.578 55.5924 360.536 55.0858 360.499C56.3128 359.072 57.5398 357.645 58.7668 356.219C59.8637 354.926 62.6058 356.316 62.8893 353.69C63.7585 352.835 65.3759 353.43 66.2078 351.873C64.9111 351.51 63.619 352.022 63.1031 349.721C62.5593 347.272 64.781 347.155 64.7484 346.542C64.5579 342.81 66.6958 343.99 68.6479 344.237C69.3497 344.325 70.5069 344.78 70.8602 343.521C71.153 342.466 70.6092 341.876 69.6006 341.634L69.5123 341.555C69.5077 341.309 69.517 341.067 69.5495 340.821C70.5348 339.594 72.3056 339.027 72.5752 337.205C73.5884 337.53 74.0392 336.605 74.7364 336.229C75.6845 336.996 76.6326 337.762 77.5808 338.529C78.2314 339.375 77.7899 340.23 77.5296 341.039C75.5218 347.313 71.9663 352.747 68.1924 358.05C67.4673 359.068 66.3147 359.899 67.0537 361.34C67.6672 362.53 68.7501 363.325 70.0561 363.362C71.5852 363.409 72.129 362.103 72.5054 360.88C73.1004 358.956 73.5233 357.097 76.1167 356.73C77.3949 356.548 78.2454 355.066 77.8782 353.778C76.8464 350.163 78.9751 348.145 81.3175 346.152C81.8846 345.668 82.8373 345.296 82.9768 344.72C84.4036 338.859 89.3953 337.181 94.0569 335.155C96.5528 334.072 98.449 332.352 100.29 330.391C103.929 326.534 108.381 324.265 114.2 324.075C111.765 331.637 108.242 338.399 106.364 345.729C107.289 345.98 107.712 345.863 108.102 345.44C108.465 345.05 108.628 344.302 109.408 344.511C110.324 345.724 107.731 347.75 110.161 348.364C111.937 348.815 112.406 346.751 113.387 345.757C115.599 343.526 115.594 339.166 119.977 338.952C120.219 338.938 120.665 337.837 120.572 337.321C120.27 335.69 120.87 334.114 119.88 332.334C118.88 330.54 119.011 326.603 120.493 326.222C124.36 325.223 124.695 322.434 125.643 319.636C125.982 318.637 126.335 317.494 127.832 317.378C129.459 317.247 129.538 318.595 130.072 319.464C130.653 320.417 131.095 321.463 131.513 322.504C131.727 323.029 131.518 324.145 132.289 323.898C134.659 323.136 138.066 324.168 139.103 320.947C140.492 316.629 143.188 312.716 142.997 307.882C142.891 305.266 143.123 302.616 143.402 300.004C143.55 298.624 144.559 297.657 146.037 297.899C147.413 298.122 147.561 299.358 147.622 300.548C147.719 302.403 146.683 303.922 146.218 305.609C145.884 306.818 145.591 308.175 146.599 309.193C147.627 310.234 148.686 309.216 149.746 309.007C152.609 308.44 154.342 306.627 155.24 304.02C157.396 297.764 163.122 293.549 164.851 287.065C164.911 286.833 165.111 286.633 165.269 286.438C166.594 284.811 168.174 283.891 170.191 285.113C172.259 286.373 172.064 288.25 171.116 290.081C170.173 291.903 168.592 293.177 166.998 294.446C163.866 296.937 161.691 299.958 160.9 304.071C160.161 307.91 158.023 311.368 158.116 315.537C158.158 317.391 158.307 319.808 157.475 321.244C155.858 324.042 157.707 323.643 159.139 323.675C162.922 323.75 166.715 323.522 170.484 323.75C172.906 323.898 173.998 323.178 174.695 320.784C176.112 315.923 177.163 310.685 179.784 306.497C183.526 300.557 186.049 293.981 190.358 288.371ZM189.303 130C189.303 130.019 189.293 130.037 189.293 130.06C189.293 130.042 189.303 130.023 189.303 130ZM197.655 137.339L197.627 137.357C197.622 137.362 197.622 137.362 197.617 137.367C197.613 137.371 197.655 137.334 197.655 137.339C198.171 137.004 198.589 136.595 198.854 136.07C198.589 136.6 198.171 137.009 197.655 137.339ZM202.326 131.227C202.33 132.171 202.019 132.928 201.415 133.528C202.019 132.933 202.335 132.171 202.326 131.227C203.26 131.19 204.199 131.157 205.133 131.12C204.199 131.157 203.26 131.195 202.326 131.227ZM212.774 156.394C212.774 156.404 212.769 156.408 212.769 156.418C212.769 156.408 212.769 156.404 212.774 156.394ZM212.676 156.924C212.671 156.961 212.662 156.999 212.657 157.036C212.657 156.999 212.671 156.961 212.676 156.924ZM207.257 121.225L207.275 121.244C207.266 121.239 207.261 121.23 207.257 121.225ZM185.45 55.5715C185.761 55.7992 186.068 56.0223 186.379 56.2501C186.551 56.4546 186.723 56.6591 186.895 56.8589C186.723 56.6544 186.551 56.4499 186.379 56.2501C186.072 56.0223 185.761 55.7946 185.45 55.5715C185.45 55.5715 185.431 55.5436 185.403 55.5157L185.45 55.5715ZM-23.7163 265.309C-23.6094 265.221 -23.5025 265.128 -23.3956 265.04C-23.5025 265.128 -23.614 265.221 -23.7163 265.309ZM54.793 347.857C54.793 347.857 54.793 347.853 54.7977 347.853C54.7977 347.857 54.793 347.857 54.793 347.857ZM49.1367 361.271C49.1367 361.275 49.1367 361.275 49.1367 361.28C49.1321 361.28 49.1367 361.275 49.1367 361.271ZM59.1712 351.408C58.9155 350.646 58.9992 349.767 58.6413 349.038C58.9992 349.767 58.9109 350.646 59.1712 351.408ZM153.208 289.854C152.674 290.918 152.446 292.136 152.474 293.474C152.446 292.136 152.669 290.918 153.208 289.854ZM155.797 287.144C155.793 287.144 155.793 287.144 155.797 287.144C155.802 287.121 155.811 287.093 155.82 287.07C155.811 287.098 155.802 287.121 155.797 287.144C155.82 287.13 155.834 287.116 155.858 287.102C155.834 287.116 155.816 287.13 155.797 287.144ZM166.492 55.4925C166.473 55.3995 166.454 55.3066 166.431 55.2183C166.454 55.3066 166.478 55.3995 166.492 55.4925ZM166.338 54.9208C166.31 54.8511 166.282 54.7814 166.245 54.721C166.278 54.7814 166.31 54.8511 166.338 54.9208ZM166.478 56.4546C166.496 56.436 166.515 56.422 166.533 56.4034C166.515 56.422 166.496 56.4406 166.478 56.4546ZM166.05 54.4607C166.008 54.4189 165.971 54.377 165.925 54.3399C165.971 54.377 166.013 54.4189 166.05 54.4607ZM165.836 54.2887C165.794 54.2608 165.753 54.233 165.706 54.2144C165.753 54.2376 165.794 54.2655 165.836 54.2887ZM165.553 54.1679C165.516 54.1539 165.478 54.14 165.432 54.1354C165.478 54.14 165.516 54.1586 165.553 54.1679Z" fill="#89128A"/>
</svg>
